<svg xmlns="http://www.w3.org/2000/svg" viewBox="0 0 400 400"><defs><style>.cls-1{fill:none;}.cls-2{isolation:isolate;}.cls-3,.cls-4{fill:#5f7793;}.cls-4{opacity:0.3;}.cls-5{fill:#7f95b9;}.cls-6,.cls-8{fill:#004876;}.cls-7{fill:#162843;}.cls-8{opacity:0.3;}.cls-9{fill:#162e52;}.cls-10{fill:#0b203f;opacity:0.5;}.cls-11{fill:#224772;}.cls-12{fill:#006299;}.cls-13{fill:#003756;}.cls-14{opacity:0.4;}.cls-15,.cls-16{fill:#0071bc;}.cls-16,.cls-17{opacity:0.6;}</style></defs><g id="图层_1" data-name="图层 1"><rect class="cls-1" width="400" height="400"/><rect class="cls-1" x="-0.94" y="-0.94" width="400" height="400"/><g class="cls-2"><path class="cls-3" d="M241.54,306.26,212.07,265.9l-12.07-7,29.47,40.36a3.49,3.49,0,0,0,1.12,1l12.07,7A3.85,3.85,0,0,1,241.54,306.26Z"/><path class="cls-4" d="M179.58,263.07l.64-.33c.81-.43,1.62-.87,2.43-1.34s1.7-1,2.54-1.54l.81-.52c.57-.37,1.14-.75,1.7-1.14.32-.21.63-.43.94-.65l1.56-1.13.94-.71c.53-.4,1.05-.81,1.57-1.22l.87-.71c.59-.48,1.16-1,1.74-1.46l.65-.55c.78-.69,1.56-1.39,2.33-2.11l.48-.46,1.53-1.47.22-.23c.91-.9,1.81-1.82,2.7-2.77.05,0,.09-.1.14-.14.84-.9,1.66-1.82,2.48-2.75l.24-.27c.32-.36.63-.74.95-1.12s.67-.78,1-1.18l1.2-1.5c.32-.4.65-.79,1-1.2l.18-.22c.6-.78,1.2-1.57,1.79-2.37l.07-.1c.56-.76,1.11-1.52,1.65-2.3a2.14,2.14,0,0,0,.13-.19q1.38-2,2.67-4c.09-.13.18-.25.26-.38s.24-.4.36-.59c.7-1.11,1.38-2.23,2.05-3.36l.32-.52.12-.21q1.13-2,2.18-3.93a3.3,3.3,0,0,0,.18-.32c.12-.21.22-.43.34-.65.55-1.06,1.08-2.11,1.61-3.18.1-.22.22-.44.33-.66s.21-.44.31-.66.26-.54.38-.81c.37-.8.74-1.6,1.09-2.4l.24-.53c0-.06,0-.12.08-.19.39-.9.77-1.8,1.13-2.71l.3-.74.51-1.29c.12-.31.23-.63.35-1l.35-.93c.3-.83.59-1.66.88-2.49.05-.17.11-.33.16-.49s0-.08.05-.13c.32-1,.63-1.93.92-2.91l.24-.82c.16-.55.33-1.1.48-1.65.05-.18.09-.36.14-.53l.36-1.37c.15-.6.31-1.21.45-1.81s.21-.93.32-1.39.15-.64.22-1,.08-.45.13-.68c.14-.69.27-1.38.4-2.07.09-.48.17-1,.25-1.44.12-.71.22-1.42.32-2.13.05-.33.11-.67.16-1,0-.15,0-.29.05-.43,0-.32.07-.65.11-1,.07-.68.14-1.36.2-2l.09-1c0-.68.09-1.37.12-2.05,0-.3,0-.61.05-.91,0-1,.06-1.95.05-2.91,0-16.66-5.93-28.38-15.41-33.89l-12.08-7c9.49,5.51,15.37,17.23,15.42,33.89q0,1.44-.06,2.91c0,.3,0,.61,0,.92,0,.68-.08,1.36-.13,2,0,.35-.05.7-.08,1.05-.06.67-.13,1.35-.21,2,0,.32-.07.65-.11,1s-.13,1-.2,1.42c-.1.71-.2,1.42-.32,2.14-.08.47-.17,1-.26,1.43-.12.69-.25,1.38-.4,2.07s-.23,1.1-.35,1.65-.21.93-.32,1.39-.29,1.21-.45,1.81-.23.91-.35,1.37q-.3,1.1-.63,2.19c-.08.27-.15.54-.23.82-.31,1-.63,2-1,3-.06.16-.11.33-.17.49-.28.83-.58,1.67-.88,2.5l-.34.93c-.28.74-.57,1.49-.87,2.23-.1.25-.19.5-.29.74-.39,1-.8,1.94-1.22,2.9-.07.18-.15.35-.23.52-.36.81-.72,1.61-1.09,2.41-.13.27-.26.54-.38.81-.21.44-.43.88-.65,1.32-.52,1.07-1.06,2.13-1.61,3.18l-.51,1q-1.07,2-2.19,3.92l-.43.74c-.67,1.12-1.35,2.24-2,3.35l-.62,1q-1.31,2-2.67,4c-.59.84-1.18,1.66-1.78,2.48a.44.44,0,0,1-.08.11c-.64.88-1.3,1.74-2,2.59-.31.41-.63.81-1,1.21s-.79,1-1.2,1.49l-1,1.19-1.19,1.38c-.81.93-1.64,1.85-2.48,2.75l-.13.15q-1.33,1.41-2.7,2.76c-.58.58-1.16,1.14-1.75,1.69-.16.16-.32.32-.49.47-.77.72-1.54,1.42-2.33,2.11l-.64.55-1.74,1.47-.88.7-1.56,1.22-.94.71c-.52.39-1,.76-1.57,1.13l-.93.66-1.7,1.13-.81.53c-.84.53-1.69,1-2.54,1.54s-1.63.91-2.44,1.33l-.63.33c-.72.37-1.45.72-2.16,1.06l-.26.12c-.8.37-1.6.71-2.39,1l-.47.19c-.77.3-1.54.59-2.3.85l-.25.08c-.72.24-1.44.46-2.16.67l-.35.1c-.57.16-1.14.29-1.71.42-.25.06-.51.14-.77.19-.81.18-1.6.32-2.39.45h-.09c-.72.11-1.43.19-2.14.26l-.7,0-1.52.08h-.67c-.53,0-1.05,0-1.56,0l-.54,0c-.67,0-1.33-.1-2-.18l-.42,0c-.52-.08-1-.16-1.56-.26l-.53-.11c-.59-.13-1.17-.27-1.75-.43l-.11,0c-.61-.17-1.2-.38-1.78-.59l-.47-.18c-.48-.19-.94-.39-1.4-.6a3.92,3.92,0,0,1-.36-.16c-.6-.29-1.18-.59-1.75-.92l12.07,7,.29.17c.48.27,1,.52,1.46.76l.36.16c.28.13.55.26.84.38l.56.21.47.19c.58.21,1.16.41,1.76.58h0l.11,0c.57.16,1.16.3,1.75.43l.53.1.54.12,1,.14c.14,0,.27.05.41.06.58.07,1.17.13,1.77.17h.2l.54,0c.52,0,1,0,1.56,0h1.19l1-.08c.24,0,.47,0,.71-.05.7-.06,1.41-.15,2.13-.26h.1c.79-.12,1.58-.27,2.39-.44l.77-.19c.5-.12,1-.22,1.49-.36l.22-.06.35-.1c.71-.21,1.43-.43,2.16-.68l.24-.07c.76-.26,1.53-.55,2.3-.86l.47-.18.49-.2c.63-.26,1.26-.54,1.9-.83l.27-.13C178.14,263.79,178.86,263.44,179.58,263.07Z"/><path class="cls-3" d="M125.6,293.55l-1.06-.74-.61-.47-.93-.72-.62-.53c-.29-.24-.57-.49-.86-.75s-.41-.38-.61-.57-.55-.52-.81-.79l-.6-.61c-.26-.27-.52-.55-.77-.83s-.39-.43-.57-.65-.5-.58-.75-.88l-.54-.67-.72-.95-.49-.68c-.25-.34-.49-.7-.72-1s-.3-.43-.44-.65c-.27-.42-.52-.84-.78-1.27l-.31-.51c-.36-.61-.7-1.22-1-1.85l-.19-.38c-.26-.51-.52-1-.77-1.55l-.32-.71c-.2-.43-.39-.86-.58-1.3-.12-.27-.23-.55-.34-.82-.16-.42-.33-.83-.49-1.25l-.33-.9c-.15-.41-.29-.82-.44-1.24l-.3-1c-.14-.42-.27-.84-.39-1.27s-.19-.65-.28-1-.24-.87-.35-1.31-.17-.67-.25-1-.21-.9-.32-1.36l-.21-1c-.1-.48-.19-1-.28-1.45-.06-.33-.12-.65-.18-1-.09-.52-.17-1-.25-1.59,0-.3-.09-.6-.13-.9-.1-.67-.18-1.35-.25-2,0-.18,0-.36-.07-.54-.09-.86-.16-1.74-.23-2.62,0-.25,0-.5-.05-.75,0-.64-.08-1.28-.11-1.93,0-.34,0-.69,0-1,0-.57,0-1.13,0-1.71v-1.14q0-.82,0-1.65c0-.4,0-.81,0-1.22s0-1.09,0-1.64,0-.83,0-1.25l.09-1.66.09-1.28c0-.57.09-1.13.14-1.7l.12-1.29c.06-.58.13-1.17.2-1.75q.06-.64.15-1.29c0-.37.1-.75.15-1.12.13-1,.28-2,.44-3,.06-.39.12-.77.19-1.15.22-1.34.46-2.69.73-4.05.2-1,.44-2.1.67-3.14.17-.8.36-1.6.55-2.4s.31-1.32.48-2,.41-1.6.63-2.4.36-1.36.55-2l.54-1.86c.23-.74.45-1.49.68-2.23l.6-1.86c.25-.77.5-1.54.76-2.3.18-.53.36-1.06.55-1.59.28-.8.58-1.6.87-2.4l.57-1.53c.35-.93.71-1.85,1.08-2.77.14-.35.27-.7.42-1,.51-1.27,1-2.53,1.59-3.79.1-.24.21-.47.31-.71.45-1,.9-2,1.37-3,.2-.42.4-.84.59-1.26.39-.83.79-1.66,1.19-2.48l.66-1.34c.42-.82.83-1.64,1.26-2.46l.63-1.22c.52-1,1-1.94,1.57-2.9l.39-.73c.67-1.19,1.35-2.38,2-3.56.22-.36.44-.72.65-1.08.49-.83,1-1.66,1.5-2.48l.83-1.33c.45-.72.91-1.44,1.37-2.16l1-1.54c.44-.67.88-1.33,1.33-2l1-1.53c.43-.62.86-1.24,1.3-1.85s.85-1.19,1.28-1.78.86-1.17,1.29-1.74.88-1.17,1.32-1.74.82-1.06,1.23-1.59l1.74-2.18,1.19-1.45c.61-.74,1.22-1.46,1.84-2.18.42-.49.83-1,1.25-1.46l.75-.84c.63-.72,1.27-1.43,1.91-2.13l.73-.78c.85-.92,1.71-1.83,2.58-2.72l.29-.29c.75-.76,1.5-1.51,2.26-2.25.53-.53,1.08-1,1.62-1.56l1.41-1.34,1.67-1.51c.47-.42.94-.85,1.41-1.26s1.14-1,1.71-1.46.94-.81,1.42-1.2,1.17-.95,1.76-1.41l1.4-1.12c.61-.47,1.22-.92,1.83-1.37l1.36-1c.65-.47,1.29-.91,1.94-1.36.43-.3.86-.61,1.29-.9.72-.49,1.44-1,2.16-1.41.36-.24.72-.48,1.09-.71,1.09-.68,2.18-1.34,3.27-2,.86-.49,1.71-1,2.57-1.43.28-.15.56-.3.85-.44.57-.31,1.15-.61,1.73-.9l1-.49,1.58-.75,1.07-.48c.51-.23,1-.46,1.54-.67l1.25-.52.94-.37,1.42-.53L197,105l1.56-.52.76-.25c.77-.25,1.54-.48,2.3-.69s1.66-.44,2.47-.64l.44-.1c.64-.15,1.28-.28,1.91-.41l.54-.11c.73-.13,1.45-.26,2.17-.37.91-.14,1.82-.25,2.71-.34.22,0,.44,0,.66-.06.67-.06,1.34-.11,2-.14l1,0,1.45,0h1l1.39,0,1.05.07,1.24.11c.35,0,.7.07,1,.12l1.21.17c.34.06.69.11,1,.18l1.11.22,1,.23,1.09.28,1,.28,1.06.34,1,.33,1,.4.93.37c.35.15.69.32,1,.48l.88.41,1,.53c.35.19.71.38,1.05.58l-12.07-7-.41-.23c-.21-.12-.43-.23-.65-.34l-1-.54-.88-.41-1-.47-.28-.13L220.2,97l-1-.4-1-.33L217.16,96l-.35-.11-.64-.16-1.09-.29-1-.23L212.94,95l-.42-.09-.61-.08q-.6-.11-1.2-.18l-1.05-.12-1.23-.11-.54-.05-.51,0-1.39,0h-1c-.48,0-1,0-1.45,0h-.71l-.31,0c-.66,0-1.33.09-2,.15l-.65,0c-.9.09-1.8.21-2.72.35H197c-.68.1-1.37.23-2.06.36l-.55.1-1.91.42-.43.09c-.65.16-1.3.32-2,.5l-.51.14q-1.16.33-2.31.69l-.75.25-1.56.52-.89.33-1.43.53-.93.38-.73.28-.52.23-1.54.67-1.07.48c-.53.24-1.06.5-1.59.75l-1,.49-1.74.9-.84.44c-.86.46-1.72.94-2.57,1.43-1.1.63-2.19,1.29-3.28,2-.36.23-.72.48-1.09.71q-1.08.69-2.16,1.41c-.43.29-.86.6-1.28.9-.65.45-1.3.89-1.94,1.36-.46.33-.91.68-1.37,1q-.92.67-1.83,1.38c-.47.36-.93.74-1.4,1.11L154,116.11c-.47.39-.94.8-1.41,1.2s-1.14,1-1.71,1.46-.95.84-1.42,1.27-1.11,1-1.66,1.51-1,.89-1.42,1.33l-1.62,1.56-.43.41c-.61.61-1.22,1.22-1.82,1.84l-.29.29c-.87.89-1.73,1.8-2.59,2.72l-.72.79c-.64.7-1.28,1.4-1.91,2.12l-.75.84-.45.51c-.27.31-.54.63-.8.95-.62.72-1.24,1.44-1.85,2.18-.39.48-.79,1-1.18,1.45-.59.72-1.17,1.45-1.75,2.19l-.63.79-.6.79-1.32,1.74-1.28,1.74-1.29,1.78c-.23.33-.46.64-.69,1l-.61.9c-.35.5-.7,1-1,1.52-.45.66-.9,1.32-1.33,2l-1,1.55-.49.74c-.29.47-.58.94-.88,1.41l-.83,1.33c-.5.82-1,1.65-1.49,2.48-.22.36-.44.72-.65,1.09a2.53,2.53,0,0,0-.13.22c-.65,1.1-1.28,2.22-1.9,3.33l-.39.72c-.44.8-.88,1.6-1.31,2.41-.09.17-.18.33-.26.5l-.64,1.22c-.42.82-.84,1.64-1.25,2.46l-.66,1.34c-.16.33-.33.65-.49,1-.24.5-.47,1-.7,1.5s-.4.84-.59,1.26c-.47,1-.93,2-1.38,3.05l-.3.69-.06.13c-.53,1.21-1,2.43-1.54,3.66l-.42,1.05c-.28.72-.57,1.43-.85,2.15-.08.2-.15.41-.23.61l-.56,1.53q-.45,1.2-.87,2.4l-.56,1.59c-.12.38-.26.76-.39,1.14s-.24.77-.37,1.15c-.2.63-.4,1.25-.59,1.87s-.46,1.49-.68,2.23-.37,1.24-.54,1.86l-.24.81c-.11.41-.21.82-.32,1.23-.21.8-.43,1.6-.63,2.4l-.48,2c-.19.8-.37,1.6-.55,2.4-.07.33-.16.66-.23,1-.15.71-.3,1.43-.44,2.15-.27,1.36-.5,2.71-.73,4l-.18,1.15c-.16,1-.31,2-.45,3.05,0,.23-.07.47-.1.69s0,.29,0,.44l-.15,1.28c-.07.59-.13,1.17-.19,1.75l-.12,1.29c0,.57-.1,1.14-.14,1.7l-.09,1.28c0,.56-.07,1.11-.09,1.66l-.06,1.25c0,.56,0,1.1,0,1.65s0,.81,0,1.21v1.64c0,.39,0,.78,0,1.16,0,.57,0,1.13,0,1.7l0,1q0,1,.12,1.92c0,.25,0,.51,0,.75.07.89.15,1.76.24,2.62l.06.53c.08.68.16,1.36.25,2,0,.3.09.6.14.9.08.53.16,1.07.25,1.6,0,.33.12.66.18,1q.12.72.27,1.44c.07.34.15.68.22,1s.2.92.31,1.37l.25,1c.11.44.23.88.35,1.31s.19.66.28,1l.39,1.27c.1.32.2.64.31.95s.29.83.43,1.24.22.61.34.91.32.82.49,1.23.22.56.34.84.37.86.57,1.28l.32.72c.25.52.51,1,.77,1.54l.2.39c.33.63.67,1.25,1,1.85.1.18.21.34.32.52.25.42.51.85.77,1.26.15.22.3.43.44.65l.72,1.06c.16.23.33.45.5.67s.47.64.72.95l.54.67c.24.3.49.6.74.89l.57.64c.26.28.51.56.77.83l.6.62.81.78.62.58.85.74.63.53q.45.38.93.72c.2.16.4.32.61.47s.7.5,1.06.74l.53.37c.54.35,1.09.69,1.64,1l12.08,7q-.84-.48-1.65-1C126,293.8,125.78,293.67,125.6,293.55Z"/><path class="cls-5" d="M257.37,179.78c-5,25.08-16.78,50-32.2,70.58l29.13,39.88c2.08,2.85.91,8.78-2.6,13.18a13.7,13.7,0,0,1-3.73,3.33c-2.55,1.47-5,1.4-6.43-.49L212.07,265.9a132.9,132.9,0,0,1-29.29,23.6,84.67,84.67,0,0,1-19.46,8.36C122,309.4,97,275.24,107.6,221.57c8.92-45.23,40.21-89.87,74.58-109.71a85,85,0,0,1,19.47-8.37C243,92,268,126.11,257.37,179.78ZM182.65,261.4c29.19-16.85,52.78-57.7,52.68-91.24s-23.83-47.06-53-30.21-52.77,57.7-52.67,91.23,23.83,47.07,53,30.22"/></g><polygon class="cls-6" points="342.59 100.87 344.39 113.52 332.33 117.25 330.54 104.61 342.59 100.87"/><polygon class="cls-7" points="332.33 117.25 326.14 113.64 324.35 100.99 330.54 104.61 332.33 117.25"/><polygon class="cls-8" points="330.54 104.61 324.35 100.99 336.41 97.25 342.59 100.87 330.54 104.61"/><polygon class="cls-6" points="86.35 50.67 100.69 69.68 84.38 86.66 70.05 67.65 86.35 50.67"/><polygon class="cls-7" points="84.38 86.66 71.03 86.34 56.69 67.33 70.05 67.65 84.38 86.66"/><polygon class="cls-8" points="70.05 67.65 56.69 67.33 73 50.35 86.35 50.67 70.05 67.65"/><polygon class="cls-6" points="95.13 320.25 87.84 339.31 68.08 335.18 75.38 316.12 95.13 320.25"/><polygon class="cls-7" points="68.08 335.18 62.24 325.32 69.54 306.26 75.38 316.12 68.08 335.18"/><polygon class="cls-8" points="75.38 316.12 69.54 306.26 89.3 310.39 95.13 320.25 75.38 316.12"/><polygon class="cls-7" points="300.21 205.07 299.88 253.09 255.09 274.08 255.42 226.06 300.21 205.07"/><polygon class="cls-9" points="292.45 299.6 255.09 274.01 255.43 225.99 292.79 251.58 292.45 299.6"/><polygon class="cls-10" points="337.23 278.68 299.88 253.09 300.21 205.07 337.56 230.66 337.23 278.68"/><polygon class="cls-11" points="337.57 230.59 337.24 278.61 292.45 299.6 292.79 251.58 337.57 230.59"/><polygon class="cls-6" points="337.57 230.59 340.37 240.44 296.86 261.38 292.79 251.58 337.57 230.59"/><polygon class="cls-6" points="292.79 251.58 289.36 261.51 252.47 236.24 255.43 225.99 292.79 251.58"/><polygon class="cls-12" points="311.8 197.4 325.49 224.89 300.81 242.56 287.12 215.08 311.8 197.4"/><polygon class="cls-13" points="300.81 242.56 283.95 239 270.26 211.51 287.12 215.08 300.81 242.56"/><polygon class="cls-6" points="287.12 215.08 270.26 211.51 294.94 193.84 311.8 197.4 287.12 215.08"/><g class="cls-14"><path class="cls-5" d="M155.36,206.79c5.4-3.12,10.15-.75,10.63,5.27s-3.52,13.45-8.91,16.56-10.15.75-10.63-5.28S150,209.9,155.36,206.79Z"/><path class="cls-15" d="M146.47,221.11a1.5,1.5,0,0,0,0-.2c0-.35.08-.71.15-1.06h0c.05-.31.12-.63.2-1s.09-.39.14-.58l.18-.63.15-.46c.08-.23.16-.47.25-.7s.09-.26.14-.38c.11-.29.24-.57.36-.85a2,2,0,0,1,.1-.21c.16-.35.33-.7.51-1l.15-.28.43-.74.22-.35c.13-.21.28-.43.42-.64l.25-.36.44-.58c.1-.14.2-.27.31-.4l.36-.41c.17-.2.34-.4.52-.59s.42-.45.64-.66l.11-.1c.27-.26.55-.51.83-.74l.14-.11c.28-.23.56-.44.85-.65l.1-.06c.3-.21.61-.41.92-.59s.47-.26.7-.37l.17-.09a6.61,6.61,0,0,1,.68-.29h0a6.08,6.08,0,0,1,.64-.22l.17-.06.5-.13.15,0,.27-.05.23,0,.26,0,.21,0a5.77,5.77,0,0,1,.72,0h.13a6.2,6.2,0,0,1,.62.06l.12,0a4.42,4.42,0,0,1,.5.1l.11,0,.53.17.11,0,.43.2.15.08-3.29-1.86-.09-.05-.07,0-.42-.19-.08,0h0a4.72,4.72,0,0,0-.53-.18h0l-.08,0-.5-.1-.08,0h0a4.46,4.46,0,0,0-.63-.05h-.13c-.23,0-.47,0-.72,0h0l-.19,0-.26,0-.23,0-.27.05H155l-.09,0-.5.14-.18.05-.63.22h0l-.67.29-.18.09c-.23.11-.46.24-.69.37s-.63.38-.93.59l-.1.07c-.29.2-.57.42-.85.64l-.13.11-.13.11c-.24.2-.48.41-.71.63l-.11.11-.52.52-.12.13c-.18.19-.35.39-.52.59l-.27.3-.09.11c-.1.13-.2.27-.31.4l-.31.41a1.77,1.77,0,0,0-.12.17l-.25.36-.25.35-.18.3-.22.35-.14.23c-.1.16-.19.33-.28.5s-.11.19-.16.28a.41.41,0,0,1-.05.09c-.15.3-.3.59-.44.89l0,.05-.09.21c-.1.22-.2.44-.29.66a1.46,1.46,0,0,0-.07.19c-.06.13-.1.25-.15.38l-.15.39c0,.11-.06.21-.1.31l-.15.46c0,.09-.06.19-.08.28s-.06.23-.09.35l-.15.58-.06.24c0,.24-.1.48-.14.72h0c0,.24-.08.47-.11.7l0,.36a1.36,1.36,0,0,0,0,.2c0,.34-.05.68-.06,1v.2c0,.34,0,.69,0,1,.22,2.88,1.43,4.92,3.21,5.93l3.29,1.87c-1.78-1-3-3.06-3.21-5.94,0-.34,0-.68,0-1v-.19C146.43,221.78,146.44,221.45,146.47,221.11Z"/></g><path class="cls-5" d="M207.94,176.79c5.39-3.11,10.15-.75,10.62,5.28s-3.51,13.44-8.91,16.56-10.15.75-10.62-5.28S202.54,179.91,207.94,176.79Z"/><path class="cls-16" d="M199.05,191.11a1.5,1.5,0,0,1,0-.2c0-.35.08-.7.14-1.06h0c.06-.32.13-.64.2-1l.15-.57c.05-.22.11-.43.18-.64s.09-.3.14-.45.16-.47.25-.71.09-.25.15-.38.23-.57.36-.85l.09-.21c.16-.35.33-.69.52-1,0-.09.1-.18.15-.27l.42-.74.22-.35.43-.65.25-.36c.14-.2.29-.39.44-.58s.2-.27.31-.4.23-.27.35-.41.34-.4.52-.59.42-.44.64-.65l.11-.11c.27-.26.55-.5.84-.74l.13-.11c.28-.22.56-.44.85-.64l.1-.07c.3-.21.61-.41.93-.59l.69-.37.18-.08c.22-.11.45-.21.67-.3h0l.63-.22.18-.05.5-.13.14,0,.27-.05.23,0,.27,0,.2,0a5.88,5.88,0,0,1,.72,0h.13c.21,0,.42,0,.63,0l.11,0,.5.11.11,0a4.72,4.72,0,0,1,.53.18l.11.05a3.36,3.36,0,0,1,.43.2l.16.08-3.3-1.87-.08-.05-.08,0-.42-.2-.07,0,0,0-.53-.17h0l-.07,0a4.59,4.59,0,0,0-.51-.1l-.07,0h0a6.2,6.2,0,0,0-.62-.06h-.13a5.77,5.77,0,0,0-.72,0h0l-.18,0-.27,0-.22,0-.27.06h0l-.1,0-.5.13-.17.05c-.21.07-.43.14-.64.23h0c-.23.09-.45.19-.68.3l-.17.09a7.88,7.88,0,0,0-.7.37c-.31.18-.62.38-.93.59l-.1.06c-.28.21-.57.42-.84.64l-.14.11-.13.11c-.24.2-.47.42-.71.64l-.1.1-.53.52-.11.14-.53.58c-.08.11-.18.2-.26.31l-.09.11c-.11.13-.21.26-.31.4s-.22.27-.32.41l-.12.17-.25.36-.24.35c-.07.1-.12.19-.18.29l-.22.35-.15.23c-.09.17-.18.34-.28.51l-.15.27a.93.93,0,0,0,0,.1c-.16.29-.31.59-.45.89a.08.08,0,0,1,0,0l-.09.21c-.1.22-.2.44-.29.67,0,.06-.05.12-.07.19l-.15.38-.15.39-.09.31c-.06.15-.1.3-.15.46l-.09.28-.09.35-.15.58a2.1,2.1,0,0,1-.06.24c-.05.24-.1.48-.14.71h0c0,.24-.07.48-.1.71s0,.24,0,.36,0,.13,0,.19c0,.34-.05.68-.05,1v.19a8.8,8.8,0,0,0,0,1c.23,2.88,1.43,4.93,3.21,5.93l3.3,1.87c-1.78-1-3-3.05-3.21-5.93,0-.34,0-.68,0-1v-.2C199,191.79,199,191.45,199.05,191.11Z"/><g class="cls-17"><path class="cls-5" d="M181.65,192c5.4-3.12,10.15-.75,10.63,5.28s-3.52,13.44-8.91,16.55-10.16.76-10.63-5.27S176.26,195.08,181.65,192Z"/><path class="cls-15" d="M172.76,206.29a1.36,1.36,0,0,0,0-.2c0-.35.08-.7.14-1.06h0c.06-.31.13-.63.21-1s.09-.39.14-.58l.18-.63.15-.46c.07-.23.16-.47.24-.7l.15-.38c.11-.29.24-.57.36-.86l.09-.2c.17-.35.34-.69.52-1l.15-.28.43-.74.22-.35c.13-.21.28-.43.42-.64l.25-.36c.14-.2.29-.39.44-.58s.2-.27.31-.4.23-.27.35-.41l.52-.59c.21-.22.43-.44.65-.65l.1-.11c.28-.26.56-.51.84-.74l.14-.11c.27-.23.56-.44.84-.64l.1-.07c.31-.21.62-.41.93-.59a7.88,7.88,0,0,1,.7-.37l.17-.09c.23-.1.45-.21.68-.29h0c.21-.08.43-.16.64-.22l.17-.06.5-.13.15,0,.27-.05.22,0a2.48,2.48,0,0,1,.27,0l.21,0c.24,0,.48,0,.72,0h.13a6.2,6.2,0,0,1,.62.06l.11,0,.51.1.11,0a5.52,5.52,0,0,1,.53.18l.11,0,.42.2.16.08-3.29-1.86-.09,0-.07,0a3.36,3.36,0,0,0-.43-.2l-.07,0h0a4.72,4.72,0,0,0-.53-.18h-.11a4,4,0,0,0-.5-.11h-.11c-.21,0-.42,0-.63,0h-.13a5.94,5.94,0,0,0-.72,0h0l-.19,0-.26,0-.23,0-.27.05h-.05l-.1,0a4.43,4.43,0,0,0-.49.13l-.18.05-.64.22h0c-.22.09-.45.19-.67.3l-.18.08-.7.37c-.31.18-.62.38-.92.59l-.1.07c-.29.2-.57.42-.85.64l-.13.11-.14.11c-.24.2-.47.41-.7.63l-.11.11-.52.52-.12.13c-.18.19-.35.39-.52.59l-.27.3-.09.11c-.1.13-.2.27-.31.4s-.21.27-.32.41-.07.12-.11.17l-.26.36-.24.36-.18.29-.22.35c-.05.08-.1.15-.14.23s-.19.34-.28.51l-.16.27a.41.41,0,0,1,0,.09c-.15.3-.3.59-.44.89l0,0-.09.21c-.1.22-.2.44-.29.66,0,.06-.05.13-.08.19s-.09.26-.14.38-.11.26-.15.4-.07.2-.1.3l-.15.46-.09.28c0,.12-.05.24-.08.35s-.11.39-.15.58a1.83,1.83,0,0,0-.06.25c-.05.23-.1.47-.14.71h0c0,.23-.08.46-.11.69l0,.36a1.5,1.5,0,0,0,0,.2c0,.34-.05.68-.06,1v.2c0,.34,0,.69,0,1,.23,2.88,1.43,4.92,3.22,5.93l3.29,1.87c-1.78-1-3-3.05-3.21-5.93,0-.34,0-.69,0-1v-.19C172.71,207,172.73,206.63,172.76,206.29Z"/></g></g></svg>