<svg xmlns="http://www.w3.org/2000/svg" viewBox="0 0 400 400"><defs><style>.cls-1{fill:none;}.cls-2{isolation:isolate;}.cls-3{fill:#4e637c;opacity:0.3;}.cls-4{fill:#dae0e8;}.cls-5{fill:#d3e5f0;}.cls-6{fill:#b6ddf1;}.cls-7{fill:#88cdf3;}.cls-8{fill:#6b7a84;}.cls-9{fill:#a3b5c1;}.cls-10{fill:#98a9b7;}.cls-11{fill:#e9edf2;}.cls-12{fill:#3f95ee;}.cls-13{opacity:0.3;}.cls-14{fill:#0071bc;}.cls-15{opacity:0.5;}</style></defs><g id="图层_2" data-name="图层 2"><g id="图层_1-2" data-name="图层 1"><rect class="cls-1" width="400" height="400"/><g class="cls-2"><path class="cls-3" d="M242.48,307.19,213,266.83l-12.08-7,29.47,40.35a3.75,3.75,0,0,0,1.12,1l12.08,7A3.67,3.67,0,0,1,242.48,307.19Z"/><path class="cls-3" d="M180.53,264l.63-.32c.81-.43,1.62-.87,2.44-1.34s1.69-1,2.53-1.54l.81-.53c.57-.37,1.14-.74,1.71-1.13l.93-.65c.52-.37,1-.75,1.56-1.14l1-.7q.78-.6,1.56-1.23l.87-.7q.89-.72,1.74-1.47l.65-.55c.78-.68,1.56-1.39,2.33-2.11l.48-.46c.51-.48,1-1,1.53-1.47.08-.07.15-.15.22-.22.91-.91,1.82-1.82,2.7-2.77l.14-.15c.84-.9,1.66-1.81,2.48-2.75l.24-.26.95-1.12c.33-.4.67-.79,1-1.18l1.21-1.5.95-1.2.18-.22c.6-.78,1.2-1.57,1.79-2.37a.86.86,0,0,1,.07-.1c.56-.76,1.11-1.53,1.65-2.3a2.14,2.14,0,0,0,.13-.19c.92-1.31,1.81-2.65,2.68-4l.25-.39c.13-.19.24-.39.36-.59.7-1.1,1.39-2.22,2.05-3.35.11-.18.22-.35.32-.53l.12-.2q1.13-2,2.19-3.93c0-.11.12-.21.17-.32s.22-.44.34-.66c.55-1.05,1.09-2.11,1.61-3.17l.33-.66c.11-.22.21-.45.31-.67l.38-.8c.38-.8.74-1.6,1.09-2.41l.24-.52a1.08,1.08,0,0,1,.08-.19c.39-.9.77-1.81,1.14-2.71.09-.25.19-.49.29-.74l.51-1.29.35-1,.35-.93c.3-.83.59-1.66.88-2.49.05-.17.11-.33.17-.49s0-.09,0-.13c.32-1,.63-1.94.92-2.91.09-.27.16-.55.24-.83.16-.55.33-1.09.48-1.64.05-.18.09-.36.14-.54.13-.45.24-.91.36-1.36.15-.61.31-1.21.45-1.82s.22-.92.32-1.38.15-.65.22-1,.08-.46.13-.69c.14-.69.27-1.38.4-2.06.09-.48.18-1,.25-1.44q.18-1.07.33-2.13c0-.34.1-.67.15-1,0-.14,0-.28.05-.42,0-.33.07-.65.11-1,.07-.68.14-1.36.2-2l.09-1c0-.69.09-1.37.12-2.05,0-.31,0-.61.05-.92,0-1,.06-1.94.05-2.9,0-16.66-5.92-28.38-15.41-33.9l-12.08-7c9.49,5.51,15.37,17.23,15.42,33.89,0,1,0,1.93-.06,2.9,0,.31,0,.62,0,.93,0,.67-.07,1.35-.13,2,0,.35-.05.7-.08,1.05-.06.67-.13,1.35-.21,2,0,.32-.07.65-.11,1-.06.48-.13.95-.2,1.43-.1.71-.2,1.42-.32,2.13-.08.48-.17,1-.25,1.44-.13.69-.26,1.38-.4,2.07s-.23,1.1-.36,1.65-.2.92-.31,1.39-.3,1.21-.46,1.81-.23.91-.35,1.37c-.2.73-.41,1.45-.62,2.18l-.24.82c-.31,1-.63,2-1,3-.05.16-.11.32-.17.49-.28.83-.57,1.66-.88,2.49l-.34.93c-.28.75-.57,1.5-.87,2.24l-.29.74c-.39,1-.8,1.94-1.22,2.9-.07.17-.15.35-.23.52-.35.81-.72,1.61-1.09,2.41l-.38.81c-.21.44-.43.88-.65,1.32-.52,1.06-1.06,2.13-1.61,3.18l-.51,1c-.71,1.32-1.43,2.63-2.19,3.93-.14.25-.29.49-.43.73-.67,1.13-1.35,2.25-2,3.35-.21.33-.41.66-.62,1q-1.31,2-2.67,4c-.59.83-1.17,1.66-1.78,2.48a.76.76,0,0,1-.08.11c-.64.88-1.3,1.74-2,2.59l-1,1.2-1.21,1.5c-.33.4-.66.79-1,1.18s-.79.93-1.18,1.39c-.82.93-1.65,1.85-2.49,2.75l-.13.14c-.89.95-1.79,1.87-2.7,2.77l-1.75,1.69-.49.47c-.76.72-1.54,1.42-2.33,2.11l-.64.55-1.74,1.46-.88.71L180,249.63l-.94.71-1.56,1.13-.94.65c-.56.39-1.13.77-1.7,1.14l-.81.52c-.84.54-1.69,1.05-2.54,1.54s-1.63.91-2.44,1.34l-.63.33q-1.08.56-2.16,1.05l-.26.13c-.8.37-1.6.7-2.39,1l-.47.19c-.77.31-1.54.6-2.3.86l-.24.07c-.73.25-1.45.47-2.17.67l-.35.11c-.57.16-1.14.29-1.7.42l-.78.19c-.8.17-1.6.32-2.39.44h-.09c-.72.11-1.43.2-2.14.26-.23,0-.47,0-.7,0l-1.52.09h-.67q-.8,0-1.56,0H146c-.67,0-1.32-.1-2-.18l-.41-.06c-.53-.07-1-.16-1.57-.26l-.53-.1c-.59-.13-1.17-.27-1.74-.43l-.12,0c-.6-.18-1.2-.38-1.78-.59l-.47-.19c-.48-.18-.94-.38-1.4-.59l-.36-.17c-.6-.28-1.18-.59-1.75-.92L146,266l.28.17c.48.27,1,.51,1.46.75l.36.17c.28.12.56.26.84.37l.56.22.47.18c.58.22,1.16.42,1.76.59h0l.11,0c.57.16,1.16.3,1.75.43l.53.1.55.11c.33.06.67.1,1,.15l.41.06c.59.07,1.17.13,1.77.17h.21l.54,0c.51,0,1,0,1.55,0l.67,0h.53c.33,0,.66,0,1-.07l.71-.05c.7-.07,1.42-.15,2.14-.26h.1c.78-.12,1.57-.27,2.38-.44l.77-.19,1.5-.36.21-.07.35-.1c.71-.2,1.43-.42,2.16-.67l.24-.08c.76-.26,1.53-.55,2.3-.85l.48-.19.48-.19c.63-.26,1.26-.54,1.9-.83l.27-.13C179.08,264.73,179.8,264.37,180.53,264Z"/><path class="cls-3" d="M126.54,294.49l-1.06-.74-.61-.47-.92-.72-.63-.53-.86-.75-.61-.57-.81-.79-.6-.61c-.26-.27-.52-.55-.77-.83l-.57-.65c-.25-.29-.5-.58-.74-.88s-.37-.44-.54-.67-.49-.63-.73-.95l-.49-.68c-.25-.34-.48-.7-.72-1s-.3-.43-.44-.65c-.27-.42-.52-.84-.78-1.27l-.31-.51c-.35-.61-.7-1.23-1-1.86-.06-.12-.12-.25-.19-.37-.26-.52-.52-1-.77-1.56-.11-.23-.21-.47-.32-.71-.2-.42-.39-.85-.58-1.29-.11-.27-.22-.55-.34-.83s-.33-.82-.49-1.24l-.33-.9c-.15-.41-.29-.83-.43-1.25s-.21-.63-.31-.94-.27-.85-.39-1.28-.19-.65-.28-1-.24-.86-.35-1.3-.17-.67-.25-1-.21-.91-.31-1.36-.15-.67-.22-1-.19-1-.28-1.45l-.18-1c-.09-.52-.17-1.06-.25-1.59,0-.3-.09-.6-.13-.91-.09-.66-.17-1.34-.25-2,0-.18,0-.35-.06-.53-.1-.87-.17-1.74-.24-2.62,0-.25,0-.5-.05-.76,0-.63-.08-1.27-.11-1.92,0-.34,0-.69,0-1,0-.57,0-1.14,0-1.71,0-.38,0-.76,0-1.14,0-.55,0-1.1,0-1.66,0-.4,0-.8,0-1.21s0-1.09,0-1.64,0-.84,0-1.26.06-1.1.1-1.65,0-.86.08-1.29.09-1.12.14-1.69l.12-1.29c.06-.58.13-1.17.2-1.76.05-.42.09-.85.15-1.28s.1-.75.15-1.12c.13-1,.28-2,.44-3.06.06-.38.12-.76.19-1.14.22-1.34.46-2.69.73-4.06.21-1,.44-2.09.67-3.14.17-.79.36-1.59.55-2.39s.31-1.32.48-2,.41-1.6.63-2.4.36-1.36.55-2,.36-1.24.55-1.86.44-1.49.67-2.24l.6-1.86c.25-.76.5-1.53.76-2.29l.55-1.59.87-2.41.57-1.52c.35-.93.71-1.85,1.08-2.77l.42-1c.51-1.26,1-2.53,1.59-3.78.1-.24.21-.47.32-.71.44-1,.9-2,1.36-3,.2-.42.4-.84.59-1.26l1.19-2.48.67-1.34c.41-.82.83-1.64,1.25-2.45l.63-1.23c.52-1,1-1.93,1.57-2.89.13-.25.26-.49.4-.73.66-1.2,1.34-2.38,2-3.56l.64-1.08c.5-.83,1-1.66,1.5-2.48.27-.45.55-.89.83-1.33.45-.72.91-1.44,1.37-2.16.33-.52.67-1,1-1.54.44-.67.88-1.34,1.33-2l1-1.52c.43-.62.86-1.24,1.3-1.85l1.28-1.78,1.29-1.75,1.32-1.74,1.23-1.58c.58-.74,1.16-1.47,1.75-2.19.39-.48.78-1,1.18-1.45.61-.73,1.22-1.45,1.84-2.17.42-.49.83-1,1.26-1.47l.74-.84c.63-.71,1.27-1.42,1.92-2.12l.72-.78c.85-.92,1.72-1.83,2.59-2.73l.28-.28c.75-.76,1.5-1.51,2.26-2.25q.81-.79,1.62-1.56l1.41-1.34,1.67-1.51,1.42-1.27c.56-.49,1.13-1,1.71-1.46l1.41-1.19c.58-.48,1.17-.95,1.76-1.42s.93-.75,1.4-1.11,1.22-.92,1.83-1.38l1.36-1,1.94-1.36,1.29-.89c.72-.49,1.44-1,2.16-1.41l1.09-.71c1.09-.68,2.18-1.34,3.27-2,.86-.5,1.71-1,2.57-1.43.28-.16.56-.3.85-.45l1.73-.89,1-.49,1.59-.76,1.06-.48,1.54-.66,1.25-.52.94-.37c.47-.19,1-.36,1.42-.54l.9-.32,1.55-.53.76-.25c.77-.24,1.54-.47,2.31-.68s1.65-.45,2.47-.64l.43-.1c.64-.15,1.28-.29,1.91-.41l.54-.11c.73-.14,1.45-.26,2.17-.37.91-.14,1.82-.25,2.72-.35l.65,0c.67-.06,1.35-.11,2-.14l1,0,1.45,0,1,0c.47,0,.94,0,1.4.05l1,.06c.42,0,.83.07,1.24.12s.7.07,1,.12l1.2.17,1,.17,1.11.23,1,.23,1.09.28,1,.28,1.06.34c.32.11.64.21,1,.33s.69.26,1,.39l.93.38,1,.47c.29.14.59.27.88.42l1,.53c.35.19.71.37,1,.57l-12.07-7-.41-.24-.64-.34-1-.53-.88-.41c-.34-.16-.69-.33-1-.48l-.28-.12-.64-.25-1-.4-1-.33-1.05-.34-.35-.11-.64-.17L216,96.34l-1-.23-1.12-.22-.42-.09-.61-.09-1.2-.17q-.53-.08-1.05-.12l-1.23-.11-.54,0-.51,0-1.39,0h-1l-1.45,0-.71,0-.31,0c-.66,0-1.33.08-2,.14l-.65.06c-.9.09-1.8.2-2.72.34l-.1,0c-.68.1-1.37.22-2.06.35l-.54.11c-.64.13-1.27.26-1.91.41l-.44.1c-.65.16-1.3.32-2,.5l-.51.14q-1.16.32-2.31.69l-.75.25-1.56.52-.89.33-1.43.53-.93.37-.73.29-.52.23c-.52.21-1,.44-1.54.67s-.71.31-1.07.48l-1.59.75-1,.49q-.87.43-1.74.9l-.84.44c-.86.46-1.72.94-2.57,1.43-1.1.63-2.19,1.29-3.28,2l-1.08.71c-.73.46-1.45.92-2.17,1.41-.43.29-.85.6-1.28.9-.65.45-1.3.89-1.94,1.36-.46.33-.91.68-1.37,1-.61.45-1.22.9-1.82,1.37l-1.41,1.12-1.76,1.41-1.41,1.19c-.57.49-1.14,1-1.71,1.47L150.4,121l-1.66,1.51-1.41,1.34c-.55.52-1.09,1-1.63,1.56l-.43.41c-.61.6-1.21,1.22-1.82,1.83l-.29.3c-.87.89-1.73,1.8-2.59,2.72l-.72.79c-.64.69-1.28,1.4-1.91,2.11l-.75.85-.45.5c-.27.32-.53.64-.8,1-.62.73-1.24,1.45-1.85,2.19l-1.18,1.44-1.75,2.19c-.2.27-.42.53-.63.79l-.59.79c-.45.58-.89,1.16-1.32,1.75s-.87,1.16-1.29,1.74-.86,1.18-1.28,1.78l-.7,1c-.2.3-.4.6-.61.89l-1,1.53c-.45.66-.89,1.32-1.33,2l-1,1.54-.49.75c-.29.47-.58.94-.88,1.41l-.83,1.33c-.5.82-1,1.65-1.49,2.48-.22.36-.44.72-.65,1.09,0,.07-.09.14-.13.22-.65,1.1-1.28,2.21-1.9,3.33l-.39.72c-.44.8-.88,1.6-1.31,2.41-.09.16-.17.33-.26.5-.22.4-.42.81-.64,1.22-.42.81-.84,1.63-1.25,2.46l-.66,1.34-.49,1c-.24.49-.46,1-.7,1.49s-.4.84-.59,1.27c-.47,1-.93,2-1.37,3-.11.23-.21.46-.31.7l-.06.12c-.53,1.22-1,2.44-1.54,3.67-.14.35-.27.7-.42,1.05-.28.72-.57,1.43-.85,2.15-.08.2-.15.41-.23.61l-.56,1.52c-.3.8-.59,1.61-.87,2.41-.19.53-.37,1.06-.55,1.59l-.4,1.14c-.12.38-.24.77-.37,1.15-.2.62-.4,1.25-.59,1.87s-.46,1.48-.68,2.23-.37,1.24-.54,1.86l-.24.81c-.11.4-.21.81-.32,1.22L98.16,208l-.48,2c-.19.8-.37,1.6-.55,2.4-.07.33-.15.66-.22,1-.16.72-.3,1.44-.45,2.16-.26,1.36-.5,2.71-.73,4l-.18,1.15c-.16,1-.31,2-.45,3.05,0,.23-.07.46-.1.69s0,.29,0,.43l-.15,1.29c-.07.58-.13,1.17-.19,1.75l-.12,1.29c0,.57-.1,1.13-.14,1.7l-.09,1.28c0,.55-.07,1.11-.09,1.66l-.06,1.25c0,.55,0,1.1,0,1.64s0,.82,0,1.22v1.64c0,.39,0,.77,0,1.16,0,.57,0,1.13,0,1.69,0,.35,0,.7,0,1,0,.65.07,1.29.11,1.93,0,.25,0,.5,0,.75.07.88.15,1.76.24,2.62l.06.53c.08.68.16,1.36.25,2,0,.3.09.6.14.9.08.53.16,1.07.25,1.59,0,.34.12.66.18,1l.27,1.45c.07.34.15.67.22,1s.2.91.31,1.36.17.67.25,1l.35,1.31c.09.33.19.65.28,1l.39,1.27c.1.31.21.63.31.95s.29.83.44,1.24.21.6.33.9.32.83.49,1.24.22.56.34.84.38.86.57,1.28l.32.72c.25.52.51,1,.77,1.54.07.12.13.26.2.39.33.63.67,1.24,1,1.85l.32.51c.25.43.51.85.78,1.27l.43.65c.24.35.48.71.72,1.05l.5.68.72.95.54.67.74.88c.19.22.38.44.58.65s.5.56.76.83l.6.61.81.79c.21.19.41.39.62.57s.57.51.86.75l.62.53.93.72c.2.16.4.32.61.47s.7.5,1.06.74c.18.12.35.25.53.36.54.36,1.09.7,1.64,1l12.08,7q-.84-.5-1.65-1Z"/><path class="cls-4" d="M258.31,180.72c-4.94,25.08-16.78,50-32.2,70.57l29.13,39.89c2.08,2.84.91,8.78-2.6,13.18a13.7,13.7,0,0,1-3.73,3.33c-2.55,1.47-5,1.4-6.43-.5L213,266.83a132.89,132.89,0,0,1-29.3,23.6,84.71,84.71,0,0,1-19.46,8.37c-41.37,11.53-66.31-22.63-55.72-76.3,8.92-45.22,40.21-89.86,74.58-109.7a84.41,84.41,0,0,1,19.48-8.37C244,92.88,268.9,127.05,258.31,180.72ZM183.6,262.34c29.19-16.85,52.77-57.7,52.67-91.24s-23.83-47.06-53-30.21-52.77,57.7-52.67,91.23,23.83,47.07,53,30.22"/></g><polygon class="cls-5" points="343.54 101.81 345.33 114.45 333.27 118.19 331.48 105.55 343.54 101.81"/><polygon class="cls-6" points="333.27 118.19 327.09 114.57 325.29 101.93 331.48 105.55 333.27 118.19"/><polygon class="cls-7" points="331.48 105.55 325.29 101.93 337.35 98.19 343.54 101.81 331.48 105.55"/><polygon class="cls-5" points="87.29 51.61 101.63 70.62 85.32 87.6 70.99 68.59 87.29 51.61"/><polygon class="cls-6" points="85.32 87.6 71.97 87.27 57.63 68.27 70.99 68.59 85.32 87.6"/><polygon class="cls-7" points="70.99 68.59 57.63 68.27 73.94 51.29 87.29 51.61 70.99 68.59"/><polygon class="cls-5" points="96.07 321.18 88.78 340.25 69.02 336.12 76.32 317.05 96.07 321.18"/><polygon class="cls-6" points="69.02 336.12 63.19 326.26 70.48 307.2 76.32 317.05 69.02 336.12"/><polygon class="cls-7" points="76.32 317.05 70.48 307.2 90.24 311.33 96.07 321.18 76.32 317.05"/><polygon class="cls-8" points="301.15 206.01 300.82 254.03 256.03 275.02 256.37 227 301.15 206.01"/><polygon class="cls-9" points="293.39 300.53 256.04 274.94 256.37 226.93 293.73 252.52 293.39 300.53"/><polygon class="cls-10" points="338.17 279.62 300.82 254.03 301.15 206.01 338.51 231.6 338.17 279.62"/><polygon class="cls-4" points="338.51 231.53 338.18 279.55 293.39 300.53 293.73 252.52 338.51 231.53"/><polygon class="cls-11" points="338.51 231.53 341.31 241.38 297.8 262.32 293.73 252.52 338.51 231.53"/><polygon class="cls-4" points="293.73 252.52 290.3 262.44 253.41 237.18 256.37 226.93 293.73 252.52"/><polygon class="cls-5" points="312.74 198.34 326.43 225.82 301.75 243.5 288.06 216.01 312.74 198.34"/><polygon class="cls-12" points="301.75 243.5 284.89 239.94 271.2 212.45 288.06 216.01 301.75 243.5"/><polygon class="cls-7" points="288.06 216.01 271.2 212.45 295.88 194.77 312.74 198.34 288.06 216.01"/><g class="cls-13"><path class="cls-5" d="M156.3,208.08c5.4-3.11,10.16-.75,10.63,5.28s-3.52,13.44-8.91,16.56-10.15.75-10.63-5.28S150.91,211.2,156.3,208.08Z"/><path class="cls-14" d="M147.41,222.4l0-.19c0-.36.08-.71.14-1.06h0c0-.32.12-.64.2-1s.09-.38.14-.58l.18-.63.15-.45c.08-.24.16-.47.25-.71s.09-.25.14-.38l.36-.85c0-.07.06-.14.1-.21.16-.35.33-.69.51-1,0-.09.1-.18.16-.27.13-.25.27-.5.42-.74l.22-.35.42-.64.25-.37.44-.58.31-.39c.12-.15.24-.28.36-.42s.34-.4.52-.58.42-.45.64-.66l.11-.11c.27-.25.55-.5.84-.74l.13-.11c.28-.22.56-.44.85-.64l.1-.07c.3-.21.61-.41.92-.59l.7-.37.18-.08c.22-.11.45-.21.67-.3h0l.64-.22.17,0,.5-.13.15,0,.27,0,.23,0,.26,0,.21,0a5.83,5.83,0,0,1,.72,0h.13l.62.05.12,0,.5.11.11,0a4.72,4.72,0,0,1,.53.18l.11.05a3.36,3.36,0,0,1,.43.2l.16.08-3.3-1.87-.09-.05-.07,0-.42-.2-.08,0,0,0-.53-.17h0l-.08,0a4,4,0,0,0-.5-.1l-.08,0h0c-.21,0-.41,0-.63-.06h-.13a5.88,5.88,0,0,0-.72,0h0l-.18,0-.27,0-.23,0L156,205H156l-.1,0-.5.13-.18.06a5.25,5.25,0,0,0-.63.22h0c-.22.08-.44.18-.67.29l-.17.09a6.7,6.7,0,0,0-.7.37c-.32.18-.62.38-.93.59l-.1.06c-.29.21-.57.42-.85.65l-.13.11-.13.1c-.24.21-.48.42-.71.64l-.1.1c-.18.17-.36.34-.53.52l-.12.14c-.18.19-.35.39-.52.59l-.27.3a1,1,0,0,0-.08.11c-.11.13-.21.26-.31.4s-.22.27-.32.41l-.12.17-.25.36-.25.35-.18.29-.22.35a1.76,1.76,0,0,1-.14.23c-.1.17-.19.34-.28.51l-.15.27-.06.1c-.15.29-.3.59-.44.89l0,0-.09.2c-.1.22-.2.44-.29.67a1.07,1.07,0,0,0-.07.19l-.15.38-.15.39c0,.1-.06.21-.1.31s-.1.3-.14.46-.07.18-.09.27-.06.24-.09.36l-.15.58-.06.24c0,.24-.1.48-.14.71h0c0,.23-.07.47-.1.7s0,.24,0,.36a1.23,1.23,0,0,0,0,.19c0,.35-.05.68-.06,1v.19c0,.35,0,.69,0,1,.22,2.88,1.43,4.93,3.21,5.94l3.3,1.86c-1.79-1-3-3-3.22-5.93,0-.34,0-.68,0-1v-.2C147.37,223.08,147.38,222.74,147.41,222.4Z"/></g><path class="cls-5" d="M208.88,177.73c5.39-3.12,10.15-.75,10.62,5.28s-3.51,13.44-8.91,16.55-10.15.76-10.62-5.27S203.49,180.84,208.88,177.73Z"/><path class="cls-14" d="M200,192.05a1.36,1.36,0,0,1,0-.2c0-.35.08-.7.14-1.06h0c.06-.32.13-.64.2-1l.15-.58q.08-.31.18-.63c0-.15.09-.3.14-.46s.16-.47.25-.7l.15-.38c.11-.29.23-.57.36-.86l.09-.2c.16-.35.34-.69.52-1l.15-.28.43-.74.21-.34c.14-.22.28-.44.43-.65l.25-.36c.14-.2.29-.39.44-.58s.2-.27.31-.4.23-.27.35-.41.34-.4.52-.59l.64-.65.11-.11c.27-.26.55-.51.84-.74L207,179c.28-.23.56-.44.85-.64l.1-.07c.31-.21.61-.41.93-.59a7.73,7.73,0,0,1,.69-.37l.18-.09.67-.29h0l.63-.22.18-.05.5-.14.15,0,.26-.05.23,0,.27,0,.2,0c.25,0,.49,0,.72,0h.13a4.34,4.34,0,0,1,.63,0l.11,0,.5.1.11,0a4.72,4.72,0,0,1,.53.18l.12,0,.42.2.16.09-3.3-1.87-.08-.05-.07,0a4.14,4.14,0,0,0-.43-.2l-.07,0h0a5.52,5.52,0,0,0-.53-.18h-.11l-.51-.11H211l-.62-.05h-.13a5.77,5.77,0,0,0-.72,0h0l-.19,0-.27,0-.22,0-.27,0h0l-.1,0-.5.13-.17,0c-.21.07-.43.14-.64.23h0c-.23.09-.45.19-.68.3l-.17.08-.7.37c-.31.18-.62.38-.92.59l-.11.07c-.28.2-.56.42-.84.64l-.14.11-.13.11c-.24.2-.47.41-.7.63l-.11.11c-.18.17-.35.34-.52.52a1.42,1.42,0,0,0-.12.13c-.18.19-.35.39-.53.59l-.26.3-.09.11c-.11.13-.21.27-.31.4s-.22.27-.32.41l-.12.17-.25.37-.24.35-.18.29c-.08.11-.15.23-.22.35s-.1.15-.14.23-.19.34-.29.5l-.15.28a.31.31,0,0,0,0,.1c-.16.29-.3.59-.44.89l0,0-.09.21c-.1.22-.2.44-.29.66a1.07,1.07,0,0,1-.07.19c0,.13-.1.26-.14.38s-.11.27-.16.4l-.09.31-.15.45-.09.28-.09.35c0,.2-.1.39-.14.58s-.05.17-.07.25c-.05.24-.09.47-.13.71h0c-.05.24-.08.47-.11.71s0,.24,0,.36a1.23,1.23,0,0,1,0,.19c0,.34-.05.68-.05,1v.2c0,.35,0,.69,0,1,.23,2.88,1.43,4.92,3.21,5.93l3.3,1.87c-1.78-1-3-3.05-3.21-5.93,0-.34,0-.69,0-1v-.2C199.94,192.73,200,192.39,200,192.05Z"/><g class="cls-15"><path class="cls-5" d="M182.59,192.91c5.4-3.12,10.15-.75,10.63,5.27s-3.52,13.45-8.91,16.56-10.15.75-10.63-5.28S177.2,196,182.59,192.91Z"/><path class="cls-14" d="M173.7,207.22a1.23,1.23,0,0,0,0-.19c0-.35.08-.71.15-1.06h0c0-.32.12-.64.2-1s.09-.39.14-.58l.18-.63.15-.46c.08-.24.16-.47.25-.7s.09-.26.14-.39c.11-.28.24-.57.36-.85a1.89,1.89,0,0,0,.09-.21c.17-.34.34-.69.52-1l.15-.27c.14-.25.28-.5.43-.74l.22-.35c.13-.22.28-.43.42-.64l.25-.36c.14-.2.29-.39.44-.58s.2-.27.31-.4l.35-.41c.18-.2.35-.4.53-.59s.42-.45.64-.66l.11-.1c.27-.26.55-.51.83-.75l.14-.11c.28-.22.56-.44.84-.64l.11-.07c.3-.2.61-.4.92-.58l.7-.38.17-.08c.23-.11.45-.21.68-.3h0c.22-.09.43-.16.64-.23l.17,0,.5-.13.15,0,.27,0,.22,0,.27,0,.21,0a5.77,5.77,0,0,1,.72,0h.13a6.2,6.2,0,0,1,.62.06l.12,0a4.42,4.42,0,0,1,.5.1l.11,0,.53.17.11.05.43.2.15.08-3.29-1.87-.09,0-.07,0-.43-.2-.07,0h0a4.72,4.72,0,0,0-.53-.18h0l-.08,0-.5-.1-.08,0h0l-.63-.06H184c-.23,0-.47,0-.72,0h0l-.19,0-.26,0-.23,0-.27.05h-.05l-.09,0-.5.14-.18.05c-.21.06-.42.14-.63.22h0l-.67.29-.18.09a7.73,7.73,0,0,0-.69.37c-.32.18-.63.38-.93.59l-.1.07c-.29.2-.57.41-.85.64l-.13.11-.13.1c-.24.21-.48.42-.71.64l-.11.1-.52.53-.12.13c-.18.19-.35.39-.52.59l-.27.3-.09.11c-.1.13-.2.27-.31.4l-.31.41a1,1,0,0,0-.12.17l-.25.36-.25.35-.18.29-.22.35c0,.08-.09.16-.14.24s-.19.33-.28.5-.11.18-.16.28a.41.41,0,0,1,0,.09c-.15.29-.3.59-.44.89l0,.05-.09.21c-.1.22-.2.43-.29.66,0,.06-.05.12-.08.19l-.14.38-.15.39c0,.11-.06.21-.1.31l-.15.46c0,.09-.06.18-.08.28a3.58,3.58,0,0,0-.09.35l-.15.58-.06.24c-.05.24-.1.48-.14.72h0c0,.24-.08.47-.11.7l0,.36a1.36,1.36,0,0,0,0,.2c0,.34,0,.68-.06,1v.19c0,.35,0,.7,0,1,.22,2.88,1.43,4.92,3.21,5.93l3.29,1.87c-1.78-1-3-3.06-3.21-5.94,0-.34,0-.68,0-1v-.19C173.65,207.9,173.67,207.56,173.7,207.22Z"/></g></g></g></svg>